Coordinates
version=1
nRows=12
nColumns=24
inDegrees=yes

Units are S.I. units (second, meters, Newtons, ...)
Angles are in degrees.

endheader
time	pelvis_tilt	pelvis_list	pelvis_rotation	pelvis_tx	pelvis_ty	pelvis_tz	hip_flexion_r	hip_adduction_r	hip_rotation_r	knee_angle_r	ankle_angle_r	subtalar_angle_r	mtp_angle_r	hip_flexion_l	hip_adduction_l	hip_rotation_l	knee_angle_l	ankle_angle_l	subtalar_angle_l	mtp_angle_l	lumbar_extension	lumbar_bending	lumbar_rotation
      1.25000000	     17.39295691	      3.86667386	      1.52321809	     -0.49080838	      0.91958817	      0.28942370	      8.28792312	     -2.85659727	     -2.08961041	    -11.80735769	     10.04106546	      0.95013559	     44.74332327	    -33.47917320	      5.03519163	     -3.52246523	    -13.19736774	     31.48613146	     13.02596397	     17.71514299	    -34.22204730	     -2.49870718	     -4.45962588
      1.25500000	     17.44234879	      3.84460587	      1.62843966	     -0.48350041	      0.91868346	      0.28975479	      8.30402989	     -2.73443911	     -1.69782065	    -12.73966434	     10.34414164	      0.94275480	     44.76259127	    -33.64033068	      4.84412589	     -3.58532408	    -13.96525060	     31.53322928	     13.30528175	     17.91753680	    -34.20430144	     -2.37515645	     -4.56414102
      1.26000000	     17.49652552	      3.82664357	      1.75143343	     -0.47605293	      0.91777957	      0.29011802	      8.26014727	     -2.61323787	     -1.35830829	    -13.65051891	     10.72371860	      1.09948263	     44.71374314	    -33.80975229	      4.63850743	     -3.63317775	    -14.73988772	     31.52431638	     13.57214899	     18.27650993	    -34.16831517	     -2.24881797	     -4.69434794
      1.26500000	     17.52294032	      3.80687327	      1.93161387	     -0.46851536	      0.91695709	      0.29035733	      8.24907167	     -2.48148252	     -1.27531529	    -14.59115953	     10.67056712	      1.22828184	     44.58489573	    -33.93542101	      4.41747478	     -3.49033881	    -15.52528953	     31.23446245	     13.50166911	     21.02435986	    -34.10479310	     -2.09474489	     -4.80850371
      1.27000000	     17.54517963	      3.74342440	      2.03458648	     -0.46114053	      0.91617698	      0.29066057	      8.28704557	     -2.28787365	     -1.28418763	    -15.50415837	      9.36703851	      0.87723253	     47.01607542	    -33.98667387	      4.19138434	     -3.51855341	    -16.43300471	     31.06946437	     13.63578158	     22.19110371	    -34.04186931	     -1.93216413	     -4.79856413
      1.27500000	     17.54942303	      3.64888352	      2.20787415	     -0.45386777	      0.91566306	      0.29085789	      8.32825019	     -2.10209293	     -1.50187179	    -16.29748689	      7.49474684	      0.29019012	     47.53040738	    -33.96133732	      3.91258236	     -3.38392829	    -17.40874868	     30.82561598	     13.60063507	     23.21012486	    -33.97884360	     -1.70088409	     -4.92927245
      1.28000000	     17.46930382	      3.51488108	      2.40318646	     -0.44675590	      0.91518666	      0.29098860	      8.52827629	     -1.93439916	     -1.77502174	    -17.16102208	      6.18034855	     -0.10676168	     47.26007190	    -33.76734102	      3.60106201	     -3.16016452	    -18.50640286	     30.66835979	     13.59975792	     23.59435095	    -33.84578172	     -1.41633967	     -4.97075867
      1.28500000	     17.32547984	      3.35071961	      2.46820042	     -0.43959878	      0.91475544	      0.29136399	      8.81006210	     -1.73588992	     -1.77609815	    -18.04923620	      5.91901765	      0.09329836	     47.57672686	    -33.50653765	      3.36147711	     -2.92710360	    -19.56074148	     30.10546526	     13.19821961	     26.77502172	    -33.63064873	     -1.17489967	     -4.83951984
      1.29000000	     17.12699090	      3.22675023	      2.52680474	     -0.43244004	      0.91432650	      0.29178752	      9.19820951	     -1.58526675	     -1.78803240	    -19.10661314	      6.42084705	      0.62139989	     48.02475459	    -33.07679002	      3.15015155	     -2.77111846	    -20.85405220	     29.75555359	     13.01787051	     27.14637811	    -33.37135559	     -0.98994821	     -4.79962773
      1.29500000	     16.93372371	      3.14049369	      2.57607288	     -0.42536763	      0.91402418	      0.29210504	      9.58617877	     -1.49061849	     -1.92710786	    -20.19761488	      6.79507911	      0.78604836	     49.19546065	    -32.60380184	      3.01729474	     -2.51347245	    -22.17651506	     29.02496957	     12.37677989	     30.46092717	    -33.13351038	     -0.82227400	     -4.69700795
      1.30000000	     16.74510729	      3.00154324	      2.55281839	     -0.41824474	      0.91381454	      0.29255303	     10.00759745	     -1.33112372	     -2.06451056	    -21.45030919	      7.36141062	      0.62317936	     47.29180888	    -32.06592405	      2.85679315	     -2.44781331	    -23.63395603	     28.34252965	     11.95732857	     32.39529574	    -32.88446650	     -0.64757737	     -4.52531736
      1.30500000	     16.68029418	      2.84648732	      2.59521063	     -0.41119575	      0.91381201	      0.29302796	     10.24592329	     -1.14293503	     -2.18932243	    -22.66152330	      8.01500169	      0.12348661	     44.75136939	    -31.56446353	      2.61596531	     -2.46530840	    -25.23829420	     27.51841315	     11.62525854	     34.87222927	    -32.78472979	     -0.43120712	     -4.35952784
